<svg xmlns="http://www.w3.org/2000/svg" height="800" width="1200" id="svg14940" version="1.1" viewBox="-50.1 -20 434.2 120"><defs id="defs14801"><clipPath id="clip-path"><path id="rect14798" fill="none" d="M0 .75h334v80H0z"/></clipPath><style id="style14796">.cls-3,.cls-4{fill:#fff}.cls-4{stroke:#000;stroke-miterlimit:10;stroke-width:1.5px}</style></defs><g transform="translate(0 -.75)" id="Layer_2"><g id="Layer_1-2"><g id="Layer_1-2-2"><g id="g14935" clip-path="url(#clip-path)"><path id="rect14805" class="cls-3" d="M64.05 4.1h1v73.4h-1z"/><path id="polygon14807" d="M63.3 78.25h2.5V3.35h-2.5z"/><path id="rect14809" class="cls-3" d="M74.15 4.1h1v73.4h-1z"/><path id="polygon14811" d="M73.4 78.25h2.5V3.35h-2.5z"/><path id="rect14813" class="cls-3" d="M69.05 4.1h1v73.4h-1z"/><path id="polygon14815" d="M68.3 78.25h2.5V3.35h-2.5z"/><path id="rect14817" class="cls-3" d="M80.25 76.4h32.1v1h-32.1z"/><path id="polygon14819" d="M79.5 78.15h33.6v-2.5H79.5z"/><path id="rect14821" class="cls-3" d="M80.25 66.3h32.1v1h-32.1z"/><path id="polygon14823" d="M79.5 68.05h33.6v-2.5H79.5z"/><path id="rect14825" class="cls-3" d="M80.25 71.3h32.1v1h-32.1z"/><path id="polygon14827" d="M79.5 73.05h33.6v-2.5H79.5z"/><path id="rect14829" class="cls-3" d="M80.25 44h30.1v1h-30.1z"/><path id="polygon14831" d="M79.5 45.75h31.6v-2.5H79.5z"/><path id="rect14833" class="cls-3" d="M80.25 33.9h30.1v1h-30.1z"/><path id="polygon14835" d="M79.5 35.65h31.6v-2.5H79.5z"/><path id="rect14837" class="cls-3" d="M80.25 39h30.1v1h-30.1z"/><path id="polygon14839" d="M79.5 40.75h31.6v-2.5H79.5z"/><path id="rect14841" class="cls-3" d="M80.25 14.2h32.1v1h-32.1z"/><path id="polygon14843" d="M79.5 15.95h33.6v-2.5H79.5z"/><path id="rect14845" class="cls-3" d="M80.25 4.1h32.1v1h-32.1z"/><path id="polygon14847" d="M79.5 5.85h33.6v-2.5H79.5z"/><path id="rect14849" class="cls-3" d="M80.25 9.1h32.1v1h-32.1z"/><path id="polygon14851" d="M79.5 10.85h33.6v-2.5H79.5z"/><path id="rect14853" class="cls-3" d="M.75 4.1h1v73.4h-1z"/><path id="polygon14855" d="M0 78.25h2.5V3.35H0z"/><path id="rect14857" class="cls-3" d="M10.85 4.1h1v73.4h-1z"/><path id="polygon14859" d="M10.1 78.25h2.5V3.35h-2.5z"/><path id="rect14861" class="cls-3" d="M5.85 4.1h1v73.4h-1z"/><path id="polygon14863" d="M5.1 78.25h2.5V3.35H5.1z"/><path id="path14865" d="M17.26 46.85l.74-.74 30.24 30.24-.74.74zm3.6-3.6l.74-.74 30.24 30.24-.74.74zm1.8-5.4L51.4 9l.74.74L24 37.85l31.4 31.3-.74.74zm-3.6-3.6L47.9 5.41l.74.74L19.8 35zm-3.6-3.6L44.3 1.81l.74.74L16.2 31.39z" class="cls-3"/><path id="path14867" d="M44.3.75l-29.9 29.9 1.8 1.8 29.9-29.9zm3.6 3.6L18 34.25l1.8 1.8 29.9-29.9zM51.4 8L21.6 37.85l1.6 1.6L54.7 71l1.8-1.8-31.4-31.35 28.1-28.1zM21.6 41.45l-1.8 1.8 31.3 31.3 1.8-1.8zm-3.6 3.6l-1.8 1.8 31.3 31.3 1.8-1.8z"/><path id="rect14869" transform="rotate(-30.55 153.5256 40.59)" class="cls-3" d="M153.05 8.58h1v64h-1z"/><path id="polygon14871" d="M169.12 69.42l2.15-1.27-33.29-56.41-2.15 1.28z"/><path id="rect14873" class="cls-3" d="M121.65 4.1h1v73.4h-1z"/><path id="polygon14875" d="M120.9 78.25h2.5V3.35h-2.5z"/><path id="rect14877" class="cls-3" d="M131.75 4.1h1v73.4h-1z"/><path id="polygon14879" d="M131 78.25h2.5V3.35H131z"/><path id="rect14881" class="cls-3" d="M126.65 4.1h1v73.4h-1z"/><path id="polygon14883" d="M125.9 78.25h2.5V3.35h-2.5z"/><path id="rect14885" class="cls-3" d="M174.45 4.1h1v73.4h-1z"/><path id="polygon14887" d="M173.7 78.25h2.5V3.35h-2.5z"/><path id="rect14889" class="cls-3" d="M184.65 4.1h1v73.4h-1z"/><path id="polygon14891" d="M183.9 78.25h2.5V3.35h-2.5z"/><path id="rect14893" class="cls-3" d="M179.55 4.1h1v73.4h-1z"/><path id="polygon14895" d="M178.8 78.25h2.5V3.35h-2.5z"/><path id="rect14897" class="cls-3" d="M194.25 76.4h58.1v1h-58.1z"/><path id="polygon14899" d="M193.5 78.15h59.6v-2.5h-59.6z"/><path id="rect14901" class="cls-3" d="M194.25 66.3h58.1v1h-58.1z"/><path id="polygon14903" d="M193.5 68.05h59.6v-2.5h-59.6z"/><path id="rect14905" class="cls-3" d="M194.25 71.3h58.1v1h-58.1z"/><path id="polygon14907" d="M193.5 73.05h59.6v-2.5h-59.6z"/><path id="path14909" d="M207.46 61.35l34.84-34.84.74.74-34.84 34.84zm-3.58-3.52L238.7 23l.74.74-34.85 34.77zm-3.62-3.58l34.84-34.84.74.74L201 55z" class="cls-3"/><path id="path14911" d="M235.1 18.35l-35.9 35.9 1.8 1.8 35.9-35.9zm3.6 3.6l-35.9 35.9 1.8 1.7 35.9-35.8-1.8-1.75zm3.6 3.5l-35.9 35.9 1.8 1.8 35.9-35.9z"/><path id="rect14913" class="cls-3" d="M194.25 14.2h58.1v1h-58.1z"/><path id="polygon14915" d="M193.5 15.95h59.6v-2.5h-59.6z"/><path id="rect14917" class="cls-3" d="M194.25 4.1h58.1v1h-58.1z"/><path id="polygon14919" d="M193.5 5.85h59.6v-2.5h-59.6z"/><path id="rect14921" class="cls-3" d="M194.25 9.1h58.1v1h-58.1z"/><path id="polygon14923" d="M193.5 10.85h59.6v-2.5h-59.6z"/><path id="path14925" d="M334 40.75a40 40 0 10-40 40 40 40 0 0040-40m-2.5 0A37.5 37.5 0 11294 3.25a37.5 37.5 0 0137.5 37.5" class="cls-4"/><path id="path14927" d="M328.8 40.75a34.8 34.8 0 10-34.8 34.8 34.84 34.84 0 0034.8-34.8m-2.6 0A32.2 32.2 0 11294 8.55a32.18 32.18 0 0132.2 32.16" class="cls-4"/><path id="path14929" d="M323.6 40.75a29.6 29.6 0 10-29.6 29.6 29.6 29.6 0 0029.6-29.6m-2.6 0a27 27 0 11-27-27 27 27 0 0127 27" class="cls-4"/><path id="path14931" d="M277 36.85l.6.2c1.6.4 3.2.1 3.7-1.7.4-1.6-.2-2.7-2.8-3.4l-1.2-.3-2.3 8.6 1.1.3zm1-4l.3.1c1.1.3 2.3.8 1.9 2.1-.4 1.3-1.6 1.3-2.7 1l-.3-.1zm9.5 8.4l.4 2.4 1.2.3-1.7-10.1-6.5 7.9 1.2.3 1.6-1.9zm-.1-1.1l-3.1-.8 2.5-3.1zm8.2 1.6a2.35 2.35 0 002.7-1.9 2.69 2.69 0 00-.6-2.4 4.43 4.43 0 00-2.2-1l-1.3-.3-2.2 8.6 1.1.3 1-3.6.4.1 1.6 4.3 1.3.3zm-.5-4.3l.3.1c1.1.3 2.3.8 1.9 2.2-.4 1.4-1.6 1.3-2.7 1l-.3-.1zm9 1.4l-1.1-.3-2.3 8.6 1.1.3zm8.5 3.4a2.47 2.47 0 00-1.9-1.9c-1.3-.3-2.8.2-3.1 1.5-.3 1.3.4 2 1.3 2.7l.5.4c.7.5 1.3 1.1 1 2a1.69 1.69 0 01-2 1.3 1.63 1.63 0 01-1.25-1.92 1.21 1.21 0 01.05-.18l-1.1-.1a2.76 2.76 0 002 3.1 2.85 2.85 0 003.5-1.9c.4-1.4-.3-2.4-1.4-3.2l-.6-.4a1.69 1.69 0 01-.9-1.6 1.38 1.38 0 011.76-.82 1.76 1.76 0 011.2 1.2z" class="cls-3"/><path id="path14933" d="M277.3 31.65l-2.3 8.6 1.1.3.9-3.7.6.2a4.92 4.92 0 001.18.16 2.4 2.4 0 002.52-1.86c.4-1.6-.2-2.7-2.8-3.4zm1.27 4.56a4 4 0 01-1.07-.16l-.3-.1.8-3.1.3.1c1.1.3 2.3.8 1.9 2.1a1.54 1.54 0 01-1.63 1.16zm8.83-2.36l-6.5 7.9 1.2.3 1.6-1.9 3.8 1.1.4 2.4 1.2.3zm0 6.3l-3.1-.8 2.5-3.1zm6.8-4l-2.2 8.6 1.1.3 1-3.6.4.1 1.6 4.3 1.3.3-1.8-4.4a2.56 2.56 0 00.39 0 2.35 2.35 0 002.31-1.93 2.69 2.69 0 00-.6-2.4 4.43 4.43 0 00-2.2-1l-1.3-.3zm1.55 4.79a4.32 4.32 0 01-1.15-.19l-.3-.1.8-3.2.3.1c1.1.3 2.3.8 1.9 2.2a1.47 1.47 0 01-1.55 1.19zm7.25-2.39l-2.3 8.6 1.1.3 2.3-8.6zm7 1.72a2.25 2.25 0 00-2.36 1.58c-.3 1.3.4 2 1.3 2.7l.5.4c.7.5 1.3 1.1 1 2a1.7 1.7 0 01-1.66 1.33 2 2 0 01-.34 0 1.63 1.63 0 01-1.25-1.92 1.21 1.21 0 01.05-.18l-1.1-.1a2.76 2.76 0 002 3.1 3 3 0 00.77.11 2.87 2.87 0 002.73-2c.4-1.4-.3-2.4-1.4-3.2l-.6-.4a1.69 1.69 0 01-.9-1.6 1.36 1.36 0 011.29-.9 1.6 1.6 0 01.47.08 1.76 1.76 0 011.2 1.2l.9-.2a2.47 2.47 0 00-1.9-1.9 3.05 3.05 0 00-.74-.08z"/></g></g></g></g></svg>